<mxfile host="Electron" modified="2023-11-03T15:01:09.247Z" agent="Mozilla/5.0 (Windows NT 10.0; Win64; x64) AppleWebKit/537.36 (KHTML, like Gecko) draw.io/22.0.0 Chrome/114.0.5735.289 Electron/25.8.3 Safari/537.36" etag="uV1izBD1RvqNeKttALl-" version="22.0.0" type="device">
  <diagram name="Страница — 1" id="svp2YQaz2aHfOG72js31">
    <mxGraphModel dx="1380" dy="962" grid="0" gridSize="10" guides="1" tooltips="1" connect="1" arrows="1" fold="1" page="0" pageScale="1" pageWidth="827" pageHeight="1169" math="0" shadow="0">
      <root>
        <mxCell id="0" />
        <mxCell id="1" parent="0" />
        <mxCell id="0pUi2rxwDd5wg-OHDLrN-1" value="1" style="ellipse;whiteSpace=wrap;html=1;fontFamily=Helvetica;fontSize=16;" vertex="1" parent="1">
          <mxGeometry x="-299" y="53" width="24" height="24" as="geometry" />
        </mxCell>
        <mxCell id="0pUi2rxwDd5wg-OHDLrN-2" value="5" style="ellipse;whiteSpace=wrap;html=1;fontFamily=Helvetica;fontSize=16;" vertex="1" parent="1">
          <mxGeometry x="-273" y="-17" width="24" height="24" as="geometry" />
        </mxCell>
        <mxCell id="0pUi2rxwDd5wg-OHDLrN-3" value="3" style="ellipse;whiteSpace=wrap;html=1;fontFamily=Helvetica;fontSize=16;" vertex="1" parent="1">
          <mxGeometry x="-186" y="-24" width="24" height="24" as="geometry" />
        </mxCell>
        <mxCell id="0pUi2rxwDd5wg-OHDLrN-4" value="b/0" style="edgeStyle=none;shape=connector;rounded=0;orthogonalLoop=1;jettySize=auto;html=1;labelBackgroundColor=default;fontFamily=Helvetica;fontSize=16;fontColor=default;endArrow=blockThin;endFill=1;" edge="1" parent="1" source="0pUi2rxwDd5wg-OHDLrN-1" target="0pUi2rxwDd5wg-OHDLrN-3">
          <mxGeometry relative="1" as="geometry">
            <mxPoint x="-216" y="63" as="sourcePoint" />
            <mxPoint x="-122" y="150" as="targetPoint" />
          </mxGeometry>
        </mxCell>
        <mxCell id="0pUi2rxwDd5wg-OHDLrN-5" style="edgeStyle=none;shape=connector;rounded=0;orthogonalLoop=1;jettySize=auto;html=1;labelBackgroundColor=default;fontFamily=Helvetica;fontSize=16;fontColor=default;endArrow=blockThin;endFill=1;" edge="1" parent="1" target="0pUi2rxwDd5wg-OHDLrN-1">
          <mxGeometry relative="1" as="geometry">
            <mxPoint x="-311" y="93" as="sourcePoint" />
            <mxPoint x="-273.99965531427574" y="41.725911719156215" as="targetPoint" />
          </mxGeometry>
        </mxCell>
        <mxCell id="0pUi2rxwDd5wg-OHDLrN-6" value="a/0" style="edgeStyle=none;shape=connector;rounded=0;orthogonalLoop=1;jettySize=auto;html=1;labelBackgroundColor=default;fontFamily=Helvetica;fontSize=16;fontColor=default;endArrow=blockThin;endFill=1;" edge="1" parent="1" source="0pUi2rxwDd5wg-OHDLrN-1" target="0pUi2rxwDd5wg-OHDLrN-2">
          <mxGeometry relative="1" as="geometry">
            <mxPoint x="-196.16" y="192.09000000000003" as="sourcePoint" />
            <mxPoint x="-125.16" y="158.09" as="targetPoint" />
          </mxGeometry>
        </mxCell>
        <mxCell id="0pUi2rxwDd5wg-OHDLrN-7" value="6" style="ellipse;whiteSpace=wrap;html=1;fontFamily=Helvetica;fontSize=16;" vertex="1" parent="1">
          <mxGeometry x="-236" y="-82" width="24" height="24" as="geometry" />
        </mxCell>
        <mxCell id="0pUi2rxwDd5wg-OHDLrN-8" value="a/1" style="edgeStyle=none;shape=connector;rounded=0;orthogonalLoop=1;jettySize=auto;html=1;labelBackgroundColor=default;fontFamily=Helvetica;fontSize=16;fontColor=default;endArrow=blockThin;endFill=1;" edge="1" parent="1" source="0pUi2rxwDd5wg-OHDLrN-2" target="0pUi2rxwDd5wg-OHDLrN-7">
          <mxGeometry relative="1" as="geometry">
            <mxPoint x="-101.49000000000001" y="89.49000000000001" as="sourcePoint" />
            <mxPoint x="-51.49000000000001" y="39.489999999999995" as="targetPoint" />
          </mxGeometry>
        </mxCell>
        <mxCell id="0pUi2rxwDd5wg-OHDLrN-9" value="a/0" style="edgeStyle=none;shape=connector;rounded=0;orthogonalLoop=1;jettySize=auto;html=1;labelBackgroundColor=default;fontFamily=Helvetica;fontSize=16;fontColor=default;endArrow=blockThin;endFill=1;" edge="1" parent="1" source="0pUi2rxwDd5wg-OHDLrN-3" target="0pUi2rxwDd5wg-OHDLrN-2">
          <mxGeometry relative="1" as="geometry">
            <mxPoint x="-168" y="30" as="sourcePoint" />
            <mxPoint x="-77" y="30" as="targetPoint" />
            <Array as="points" />
          </mxGeometry>
        </mxCell>
        <mxCell id="0pUi2rxwDd5wg-OHDLrN-10" value="4" style="ellipse;whiteSpace=wrap;html=1;fontFamily=Helvetica;fontSize=16;" vertex="1" parent="1">
          <mxGeometry x="-191" y="-160" width="24" height="24" as="geometry" />
        </mxCell>
        <mxCell id="0pUi2rxwDd5wg-OHDLrN-11" value="a/1" style="edgeStyle=none;shape=connector;rounded=0;orthogonalLoop=1;jettySize=auto;html=1;labelBackgroundColor=default;fontFamily=Helvetica;fontSize=16;fontColor=default;endArrow=blockThin;endFill=1;" edge="1" parent="1" source="0pUi2rxwDd5wg-OHDLrN-7" target="0pUi2rxwDd5wg-OHDLrN-10">
          <mxGeometry relative="1" as="geometry">
            <mxPoint x="-167.16" y="126.49000000000001" as="sourcePoint" />
            <mxPoint x="-137.16" y="187.49" as="targetPoint" />
            <Array as="points" />
          </mxGeometry>
        </mxCell>
        <mxCell id="0pUi2rxwDd5wg-OHDLrN-12" value="2" style="ellipse;whiteSpace=wrap;html=1;fontFamily=Helvetica;fontSize=16;" vertex="1" parent="1">
          <mxGeometry x="-353" y="-48" width="24" height="24" as="geometry" />
        </mxCell>
        <mxCell id="0pUi2rxwDd5wg-OHDLrN-13" value="b/0" style="edgeStyle=none;shape=connector;rounded=0;orthogonalLoop=1;jettySize=auto;html=1;labelBackgroundColor=default;fontFamily=Helvetica;fontSize=16;fontColor=default;endArrow=blockThin;endFill=1;" edge="1" parent="1" source="0pUi2rxwDd5wg-OHDLrN-12" target="0pUi2rxwDd5wg-OHDLrN-1">
          <mxGeometry relative="1" as="geometry">
            <mxPoint x="-177.91" y="116.57" as="sourcePoint" />
            <mxPoint x="-251.91" y="126.57" as="targetPoint" />
            <Array as="points" />
          </mxGeometry>
        </mxCell>
        <mxCell id="0pUi2rxwDd5wg-OHDLrN-14" value="b/0" style="edgeStyle=none;shape=connector;rounded=0;orthogonalLoop=1;jettySize=auto;html=1;labelBackgroundColor=default;fontFamily=Helvetica;fontSize=16;fontColor=default;endArrow=blockThin;endFill=1;" edge="1" parent="1" source="0pUi2rxwDd5wg-OHDLrN-2" target="0pUi2rxwDd5wg-OHDLrN-1">
          <mxGeometry relative="1" as="geometry">
            <mxPoint x="-195" y="120" as="sourcePoint" />
            <mxPoint x="-220.04" y="94.4" as="targetPoint" />
          </mxGeometry>
        </mxCell>
        <mxCell id="0pUi2rxwDd5wg-OHDLrN-15" value="b/1" style="edgeStyle=none;shape=connector;rounded=0;orthogonalLoop=1;jettySize=auto;html=1;labelBackgroundColor=default;fontFamily=Helvetica;fontSize=16;fontColor=default;endArrow=blockThin;endFill=1;" edge="1" parent="1" source="0pUi2rxwDd5wg-OHDLrN-7" target="0pUi2rxwDd5wg-OHDLrN-10">
          <mxGeometry x="-0.0031" relative="1" as="geometry">
            <mxPoint x="-21.730000000000018" y="54.44999999999999" as="sourcePoint" />
            <mxPoint x="-134" y="-122" as="targetPoint" />
            <Array as="points">
              <mxPoint x="-163" y="-97" />
            </Array>
            <mxPoint as="offset" />
          </mxGeometry>
        </mxCell>
        <mxCell id="0pUi2rxwDd5wg-OHDLrN-16" value="b/1" style="edgeStyle=none;shape=connector;rounded=0;orthogonalLoop=1;jettySize=auto;html=1;labelBackgroundColor=default;fontFamily=Helvetica;fontSize=16;fontColor=default;endArrow=blockThin;endFill=1;" edge="1" parent="1" source="0pUi2rxwDd5wg-OHDLrN-3" target="0pUi2rxwDd5wg-OHDLrN-40">
          <mxGeometry relative="1" as="geometry">
            <mxPoint x="-169.29" y="117.44999999999999" as="sourcePoint" />
            <mxPoint x="-236" y="-4" as="targetPoint" />
          </mxGeometry>
        </mxCell>
        <mxCell id="0pUi2rxwDd5wg-OHDLrN-17" value="a/1" style="edgeStyle=none;shape=connector;rounded=0;orthogonalLoop=1;jettySize=auto;html=1;labelBackgroundColor=default;fontFamily=Helvetica;fontSize=16;fontColor=default;endArrow=blockThin;endFill=1;" edge="1" parent="1" source="0pUi2rxwDd5wg-OHDLrN-12" target="0pUi2rxwDd5wg-OHDLrN-7">
          <mxGeometry x="0.0024" relative="1" as="geometry">
            <mxPoint x="-252.16" y="91.16999999999999" as="sourcePoint" />
            <mxPoint x="-222.16" y="152.17" as="targetPoint" />
            <Array as="points" />
            <mxPoint as="offset" />
          </mxGeometry>
        </mxCell>
        <mxCell id="0pUi2rxwDd5wg-OHDLrN-18" value="b/1" style="edgeStyle=none;shape=connector;rounded=0;orthogonalLoop=1;jettySize=auto;html=1;labelBackgroundColor=default;fontFamily=Helvetica;fontSize=16;fontColor=default;endArrow=blockThin;endFill=1;" edge="1" parent="1" source="0pUi2rxwDd5wg-OHDLrN-10" target="0pUi2rxwDd5wg-OHDLrN-12">
          <mxGeometry relative="1" as="geometry">
            <mxPoint x="-215" y="-147.93" as="sourcePoint" />
            <mxPoint x="-223" y="-155.93" as="targetPoint" />
            <Array as="points">
              <mxPoint x="-280" y="-125" />
            </Array>
          </mxGeometry>
        </mxCell>
        <mxCell id="0pUi2rxwDd5wg-OHDLrN-19" value="a/1" style="edgeStyle=none;shape=connector;rounded=0;orthogonalLoop=1;jettySize=auto;html=1;labelBackgroundColor=default;fontFamily=Helvetica;fontSize=16;fontColor=default;endArrow=blockThin;endFill=1;" edge="1" parent="1" source="0pUi2rxwDd5wg-OHDLrN-10" target="0pUi2rxwDd5wg-OHDLrN-12">
          <mxGeometry relative="1" as="geometry">
            <mxPoint x="-335.31" y="131.28" as="sourcePoint" />
            <mxPoint x="-158.31" y="172.28" as="targetPoint" />
            <Array as="points" />
          </mxGeometry>
        </mxCell>
        <mxCell id="0pUi2rxwDd5wg-OHDLrN-39" value="7" style="ellipse;whiteSpace=wrap;html=1;fontFamily=Helvetica;fontSize=16;" vertex="1" parent="1">
          <mxGeometry x="-82" y="-96" width="24" height="24" as="geometry" />
        </mxCell>
        <mxCell id="0pUi2rxwDd5wg-OHDLrN-40" value="8" style="ellipse;whiteSpace=wrap;html=1;fontFamily=Helvetica;fontSize=16;" vertex="1" parent="1">
          <mxGeometry x="-82" y="50" width="24" height="24" as="geometry" />
        </mxCell>
        <mxCell id="0pUi2rxwDd5wg-OHDLrN-41" value="9" style="ellipse;whiteSpace=wrap;html=1;fontFamily=Helvetica;fontSize=16;" vertex="1" parent="1">
          <mxGeometry x="-85" y="-27" width="24" height="24" as="geometry" />
        </mxCell>
        <mxCell id="0pUi2rxwDd5wg-OHDLrN-42" value="a/0" style="edgeStyle=none;shape=connector;rounded=0;orthogonalLoop=1;jettySize=auto;html=1;labelBackgroundColor=default;fontFamily=Helvetica;fontSize=16;fontColor=default;endArrow=blockThin;endFill=1;" edge="1" parent="1" source="0pUi2rxwDd5wg-OHDLrN-40" target="0pUi2rxwDd5wg-OHDLrN-3">
          <mxGeometry relative="1" as="geometry">
            <mxPoint x="-15" y="-11" as="sourcePoint" />
            <mxPoint x="-163" y="48" as="targetPoint" />
            <Array as="points">
              <mxPoint x="-151" y="50" />
            </Array>
          </mxGeometry>
        </mxCell>
        <mxCell id="0pUi2rxwDd5wg-OHDLrN-43" value="b/1" style="edgeStyle=none;shape=connector;rounded=0;orthogonalLoop=1;jettySize=auto;html=1;labelBackgroundColor=default;fontFamily=Helvetica;fontSize=16;fontColor=default;endArrow=blockThin;endFill=1;" edge="1" parent="1" source="0pUi2rxwDd5wg-OHDLrN-40" target="0pUi2rxwDd5wg-OHDLrN-41">
          <mxGeometry relative="1" as="geometry">
            <mxPoint x="12" y="47" as="sourcePoint" />
            <mxPoint x="-53.89" y="-44.019999999999996" as="targetPoint" />
            <Array as="points">
              <mxPoint x="-29" y="26" />
            </Array>
          </mxGeometry>
        </mxCell>
        <mxCell id="0pUi2rxwDd5wg-OHDLrN-44" value="b/1" style="edgeStyle=none;shape=connector;rounded=0;orthogonalLoop=1;jettySize=auto;html=1;labelBackgroundColor=default;fontFamily=Helvetica;fontSize=16;fontColor=default;endArrow=blockThin;endFill=1;" edge="1" parent="1" source="0pUi2rxwDd5wg-OHDLrN-41" target="0pUi2rxwDd5wg-OHDLrN-39">
          <mxGeometry relative="1" as="geometry">
            <mxPoint x="-28.51" y="-114.86000000000001" as="sourcePoint" />
            <mxPoint x="26.49" y="-195.86" as="targetPoint" />
          </mxGeometry>
        </mxCell>
        <mxCell id="0pUi2rxwDd5wg-OHDLrN-45" value="a/0" style="edgeStyle=none;shape=connector;rounded=0;orthogonalLoop=1;jettySize=auto;html=1;labelBackgroundColor=default;fontFamily=Helvetica;fontSize=16;fontColor=default;endArrow=blockThin;endFill=1;" edge="1" parent="1" source="0pUi2rxwDd5wg-OHDLrN-41" target="0pUi2rxwDd5wg-OHDLrN-3">
          <mxGeometry x="-0.0035" relative="1" as="geometry">
            <mxPoint x="-22.5" y="-120.37" as="sourcePoint" />
            <mxPoint x="38.5" y="-198.37" as="targetPoint" />
            <Array as="points" />
            <mxPoint as="offset" />
          </mxGeometry>
        </mxCell>
        <mxCell id="0pUi2rxwDd5wg-OHDLrN-46" value="a/0" style="edgeStyle=none;shape=connector;rounded=0;orthogonalLoop=1;jettySize=auto;html=1;labelBackgroundColor=default;fontFamily=Helvetica;fontSize=16;fontColor=default;endArrow=blockThin;endFill=1;" edge="1" parent="1" source="0pUi2rxwDd5wg-OHDLrN-39" target="0pUi2rxwDd5wg-OHDLrN-3">
          <mxGeometry relative="1" as="geometry">
            <mxPoint x="44.4" y="-203.92" as="sourcePoint" />
            <mxPoint x="-120.6" y="-159.92" as="targetPoint" />
            <Array as="points" />
          </mxGeometry>
        </mxCell>
        <mxCell id="0pUi2rxwDd5wg-OHDLrN-47" value="b/1" style="edgeStyle=none;shape=connector;rounded=0;orthogonalLoop=1;jettySize=auto;html=1;labelBackgroundColor=default;fontFamily=Helvetica;fontSize=16;fontColor=default;endArrow=blockThin;endFill=1;" edge="1" parent="1" source="0pUi2rxwDd5wg-OHDLrN-39" target="0pUi2rxwDd5wg-OHDLrN-41">
          <mxGeometry relative="1" as="geometry">
            <mxPoint x="-64" y="-165" as="sourcePoint" />
            <mxPoint x="-46" y="-165" as="targetPoint" />
            <Array as="points">
              <mxPoint x="-12" y="-53" />
            </Array>
          </mxGeometry>
        </mxCell>
      </root>
    </mxGraphModel>
  </diagram>
</mxfile>
